<?xml version="1.0" encoding="utf-8"?>
<!-- Generator: Adobe Illustrator 24.2.1, SVG Export Plug-In . SVG Version: 6.00 Build 0)  -->
<svg version="1.1" id="Layer_1" xmlns="http://www.w3.org/2000/svg" xmlns:xlink="http://www.w3.org/1999/xlink" x="0px" y="0px"
	 viewBox="0 0 85 85" style="enable-background:new 0 0 85 85;" xml:space="preserve">
<style type="text/css">
	.st0{fill:#FFFFFF;}
	.st1{fill:#F7A706;}
	.st2{fill:#EC0A28;}
</style>
<path d="M43.3,85.6c23.1,0,41.9-18.8,41.9-42.1c0-23.1-18.8-41.9-41.9-41.9c-23.2,0-42,18.8-42.1,41.9C1.3,66.8,20.1,85.6,43.3,85.6
	z"/>
<path class="st0" d="M41.5,81.2c22.8,0.1,41.2-18.4,41.3-41.3c0-22.7-18.5-41.2-41.3-41.3C18.6-1.3,0.2,17.2,0.2,39.9
	C0.2,62.7,18.6,81.2,41.5,81.2L41.5,81.2z"/>
<path d="M31.8,31.8c-1.5,0.4-2.8,0.6-4.4,0.6c-3.6,0-6.5-1.9-6.4-5.7c0-3.6,3-5.4,6.4-5.4c1.3-0.1,2.7,0.1,4,0.3v2.9
	c-0.6-0.3-1.7-0.6-2.9-0.6c-2,0-3.3,1.1-3.4,3.1c0.1,1.4,0.7,2.7,2.3,2.8c0.3-0.1,0.6-0.1,0.9-0.2v-2.9h3.5L31.8,31.8L31.8,31.8z
	 M37.8,24c3.2,0.1,5,1.4,4.9,4.1c0.1,2.7-1.7,4.3-4.9,4.3c-3.2,0-5-1.6-4.9-4.3C32.9,25.4,34.6,24,37.8,24L37.8,24z M48.4,24
	c3.1,0.1,4.9,1.4,4.9,4.1c0,2.7-1.8,4.3-4.9,4.3c-3.3,0-5-1.6-5.1-4.3C43.4,25.4,45.1,24,48.4,24z M60.1,32.2v-1.5
	c-0.6,1.2-1.4,1.7-2.6,1.7c-2.6,0-3.5-2-3.5-4.3c0-2.2,1-4.1,3.4-4.1c1,0.1,1.8,0.4,2.5,1.2v-4.5h3.8v11.5H60.1L60.1,32.2z"/>
<path class="st0" d="M42.6,16c4.6-1.3,7.9-3.3,7.5-4.4c-0.3-1.2-4.3-1.1-8.9,0.2c-4.4,1.3-7.8,3.3-7.5,4.4
	C34.1,17.3,38.1,17.2,42.6,16L42.6,16z"/>
<path d="M78.6,34.5"/>
<path class="st0" d="M37.8,30.1c0.8,0,0.9-0.9,0.9-2c-0.1-1-0.2-1.8-0.9-1.8c-0.7,0.1-0.8,0.9-0.8,1.8C37,29.2,37.1,30.1,37.8,30.1z
	 M48.4,30.1c0.7,0,0.8-0.9,0.8-2c0-1-0.1-1.8-0.8-1.8c-0.8,0.1-0.9,0.9-0.9,1.8C47.5,29.2,47.6,30.1,48.4,30.1z M58.8,26.4
	c-0.8,0-0.9,0.8-0.9,1.7c0,0.8,0.2,1.7,1.1,1.7c0.8,0,0.9-0.9,0.9-1.7C59.9,27.2,59.7,26.4,58.8,26.4z"/>
<path class="st1" d="M45.8,81.1c0.1,0,0.4,0,0.5,0c0.1,0,0,0-0.3,0C45.8,81.2,45.7,81.2,45.8,81.1z M48.1,81.1c0.1,0,0.4,0,0.5,0
	c0.1,0,0,0-0.3,0C48,81.1,47.9,81.1,48.1,81.1z M42,70.3c0,0-0.1-1-0.1-2.2c-0.1-2-0.1-2.2-0.3-2.1c-0.1,0-0.3,0.1-0.4,0.1
	c-0.1,0-0.2,0.4-0.1,2.1l0.1,2.1l-0.6,0l-0.1-4.3L40,66c-1-0.2-2.3-0.8-3.1-1.6c-1.3-1.3-2.2-3.3-2.3-5.4l0-0.8L34.1,58
	c-0.3-0.1-0.5-0.2-0.5-0.2c0,0,0.3-0.1,0.6-0.2c0.4-0.1,0.8-0.3,1.1-0.6c1.2-1,2.1-0.9,4.6,0.5c2.1,1.2,3.3,1.6,5.3,1.8
	c1.1,0.1,2.3,0.1,3.4,0c0.7-0.1,0.3,0.3,5-4.5c1.3-1.3,1.4-1.4,1.5-1.1c0.2,0.7,0.8,1.3,1.6,1.6l0.4,0.1l-3.6,2.2l-3.6,2.2l-0.8,1
	c-1.7,2.1-3.8,3.8-5.5,4.7l-1,0.5l0.1,2.2c0.1,2.1,0.1,2.2-0.2,2.3C42.2,70.4,42.1,70.4,42,70.3z M36.8,57.6
	c0.2-0.2,0.1-0.5-0.2-0.6c-0.3-0.1-0.7,0.1-0.7,0.4C35.9,57.9,36.4,58,36.8,57.6z"/>
<path class="st2" d="M62.1,49.5c-0.9-0.1-1.3-0.3-1.7-0.6c-0.3-0.2-0.4-0.5-0.4-0.8c0-0.5,0.3-0.9,0.9-1.1l0.3-0.1l-0.3-0.2
	c-0.4-0.2-0.5-0.5-0.5-0.9c0-0.4,0.3-0.8,0.7-1l0.3-0.1l-0.3-0.3c-0.3-0.4-0.5-0.8-0.5-1.5c0-1.1,0.6-1.8,1.8-2.1
	c0.9-0.2,1.8-0.1,2.6,0.4l0.2,0.1l0.2-0.2c0.8-0.8,2-0.5,2.2,0.5c0.1,0.3-0.1,0.7-0.3,0.9c-0.2,0.2-0.6,0.2-0.8,0
	c-0.3-0.3-0.2-0.9,0.2-1c0.3-0.1,0.1-0.2-0.3-0.2c-0.2,0-0.7,0.2-0.8,0.4c-0.1,0.1-0.1,0.2,0.1,0.6c0.2,0.8,0.2,1.6-0.2,2.1
	c-0.2,0.3-0.8,0.6-1.2,0.8c-0.5,0.2-1.4,0.2-1.9,0.1c-0.6-0.2-0.7-0.1-0.9,0c-0.2,0.2-0.3,0.5-0.1,0.7c0.1,0.1,0.2,0.2,0.3,0.2
	c0.1,0,0.8,0.1,1.6,0.1c1.6,0,2.2,0.1,2.6,0.4c0.7,0.5,0.8,1.7,0.1,2.3c-0.3,0.2-0.8,0.5-1.2,0.6C64.1,49.5,62.7,49.6,62.1,49.5
	L62.1,49.5z M64.3,48.9c0.8-0.2,1.1-0.4,1.1-0.9c0-0.4-0.1-0.6-0.4-0.7c-0.2-0.1-0.4-0.1-1.6-0.1c-0.8,0-1.5,0-1.6,0.1
	c-0.4,0.1-0.8,0.5-0.8,0.8c0,0.5,0.3,0.8,0.9,0.9C62.4,49,63.7,49,64.3,48.9L64.3,48.9z M63.8,44.4c0.8-0.4,0.9-2.1,0.2-2.8
	c-0.5-0.5-1.5-0.5-2,0c-0.3,0.3-0.4,0.7-0.4,1.3c0,0.9,0.3,1.4,1.1,1.6C63,44.7,63.5,44.6,63.8,44.4z"/>
<path class="st2" d="M31.3,46.8c-0.9-0.2-1.6-0.8-1.9-1.6c-0.2-0.6-0.3-1.3-0.3-1.9c0.2-1.7,1.4-2.7,3.1-2.7c1.8,0,3.1,1.3,3.1,3.2
	c0,1.6-0.9,2.8-2.3,3.1C32.6,46.9,31.8,46.9,31.3,46.8z M33,46.2c0.4-0.2,0.7-0.5,1-1c0.2-0.4,0.2-0.5,0.2-1.4c0-0.9,0-1-0.2-1.4
	c-0.3-0.8-0.9-1.2-1.8-1.2c-0.9,0-1.6,0.5-1.8,1.3c-0.2,0.7-0.2,1.2-0.1,1.8c0.1,1.1,0.6,1.7,1.3,1.9C31.9,46.3,32.7,46.3,33,46.2z
	 M47.3,46.7l-1.6,0v-0.5l0.5,0c0.7-0.1,0.7,0,0.7-2c0-0.9,0-1.8-0.1-2c-0.2-0.8-0.9-1.1-1.8-0.8c-0.4,0.1-0.9,0.6-1.1,1.2
	c-0.1,0.3-0.1,0.6-0.1,1.9c0,1.3,0,1.5,0.1,1.6c0.1,0.1,0.3,0.1,0.6,0.1l0.5,0v0.5h-3.5v-0.5l0.5,0c0.3,0,0.6-0.1,0.6-0.1
	c0.1-0.1,0.1-4.5,0-4.6c0,0-0.3-0.1-0.5-0.1l-0.5,0l0-0.3l0-0.3h2.2v0.5c0,0.3,0,0.5,0.1,0.5c0,0,0.1-0.1,0.2-0.2
	c0.4-0.6,1.3-1,2.1-0.9c0.6,0,0.9,0.2,1.2,0.6c0.5,0.5,0.5,0.7,0.5,2.9c0,1.1,0.1,1.9,0.1,2c0.1,0.1,0.6,0.2,1.2,0.1
	c1.1,0,1,0.2,1-2.4c0-2.5,0-2.4-0.8-2.4l-0.5,0l0-0.3l0-0.3h2.4v2.6c0,1.4,0,2.6,0.1,2.6c0.1,0.1,0.6,0.2,1.3,0.2
	c0.5,0,0.7-0.1,0.8-0.1c0.1-0.1,0.1-0.2,0.1-2.2c0-2.5,0-2.4-0.8-2.4h-0.5v-0.6h2.3v1l0.3-0.3c0.5-0.6,1.1-0.9,1.9-0.9
	c0.8,0,1.5,0.4,1.8,1.1c0.2,0.3,0.2,0.4,0.2,2.3c0,1.6,0,1.9,0.1,2c0.1,0.1,0.3,0.1,0.6,0.1l0.5,0v0.5h-3.4v-0.5l0.5,0
	c0.3,0,0.5-0.1,0.6-0.2c0.1-0.1,0.1-0.6,0.1-2c0-1.8,0-1.9-0.2-2.2c-0.2-0.4-0.5-0.6-1.1-0.6c-0.8,0-1.4,0.5-1.7,1.2
	c-0.1,0.3-0.1,0.5-0.1,1.9c0,0.8,0,1.5,0.1,1.6c0.1,0.1,0.4,0.2,0.8,0.2h0.3v0.5h-1.6c-0.9,0-2.5,0-3.5,0
	C49.7,46.7,48.2,46.7,47.3,46.7L47.3,46.7z M17.5,46.4v-0.3l0.6,0c0.9,0,0.8,0.3,0.8-3.6v-3.3l-0.2-0.1c-0.1-0.1-0.3-0.1-0.7-0.1
	h-0.5v-0.7l1.5,0l1.5,0l0.2,0.6c0.1,0.3,0.3,0.9,0.5,1.3c0.1,0.4,0.6,1.5,1,2.6c0.4,1.1,0.7,2,0.8,2c0.1,0.1-0.1,0.4,1.4-3.4
	l1.2-3.1h3l0,0.3l0,0.3l-0.6,0c-0.5,0-0.6,0.1-0.7,0.2l-0.2,0.2v3.2c0,1.7,0,3.2,0,3.3c0.1,0.2,0.3,0.4,0.9,0.4h0.5v0.6h-4.1v-0.6
	l0.6,0c0.9,0,0.9,0.3,0.9-3.5c0-1.7,0-3.1,0-3.1c0,0-0.4,1-0.9,2.2c-0.4,1.2-1.1,2.8-1.3,3.6l-0.5,1.4h-0.8l-1.1-3.1
	c-0.6-1.7-1.2-3.4-1.4-3.8l-0.2-0.6l0,3.3c0,3.9-0.1,3.6,0.8,3.6l0.6,0v0.6h-3.7L17.5,46.4L17.5,46.4L17.5,46.4z M35.9,46.4v-0.3
	l0.6,0c0.5,0,0.6-0.1,0.7-0.2s0.1-0.6,0.1-2.3c0-2.5,0.1-2.4-0.8-2.4h-0.5v-0.6h2.3v0.5c0,0.3,0,0.5,0.1,0.5c0,0,0.1-0.1,0.2-0.3
	c0.5-1,1.7-1.3,2.5-0.7c0.3,0.2,0.4,0.5,0.4,1c0,0.3,0,0.4-0.2,0.6c-0.1,0.2-0.2,0.2-0.5,0.2c-0.4,0-0.6-0.2-0.6-0.6
	c0-0.4,0.1-0.5,0.4-0.6c0.5-0.2,0.1-0.4-0.5-0.4c-0.4,0-0.7,0.1-1,0.5c-0.5,0.6-0.7,1.4-0.7,2.9c0,1.1,0,1.1,0.2,1.3
	c0.1,0.2,0.2,0.2,0.7,0.2l0.5,0v0.5h-3.7L35.9,46.4L35.9,46.4z"/>
<path class="st2" d="M49.7,38.8c-0.3-0.3-0.3-0.7,0-1.1c0.2-0.2,0.6-0.2,0.8,0c0.1,0.1,0.2,0.2,0.2,0.3c0.1,0.2,0.1,0.3,0,0.5
	c-0.1,0.3-0.4,0.4-0.7,0.4C50,38.9,49.8,38.9,49.7,38.8L49.7,38.8z"/>
</svg>
