<?xml version="1.0" encoding="utf-8"?>
<!-- Generator: Adobe Illustrator 24.2.1, SVG Export Plug-In . SVG Version: 6.00 Build 0)  -->
<svg version="1.1" id="Layer_1" xmlns="http://www.w3.org/2000/svg" xmlns:xlink="http://www.w3.org/1999/xlink" x="0px" y="0px"
	 viewBox="0 0 2500 455" style="enable-background:new 0 0 2500 455;" xml:space="preserve">
<style type="text/css">
	.st0{fill:#F7A706;}
	.st1{fill:#EC0A28;}
</style>
<path class="st0" d="M2273.2,454.2c2.3-0.3,5.8-0.3,7.8,0c1.9,0.3,0,0.6-4.4,0.6C2272.4,454.8,2270.7,454.5,2273.2,454.2z
	 M2309.1,454.2c2.3-0.3,5.8-0.3,7.8,0c1.9,0.3,0,0.6-4.4,0.6C2308.4,454.8,2306.6,454.5,2309.1,454.2z M2300.2,244.7
	c-0.5-0.5-0.9-15.6-0.9-33.6c0-29.2-0.3-32.5-2.5-31.7c-1.4,0.5-3.4,0.9-4.7,0.9c-1.9,0-2.2,5.5-2.2,32v32h-7.8v-63.9l-6.6-1.7
	c-13.3-3.3-29.1-13.4-39.4-25.3c-16.9-19.4-27.5-51.1-27.5-82.6V59l-7-2.7c-3.9-1.6-7-3.3-7-3.9c0-0.6,3.7-2,8.3-3.1
	c5.5-1.4,10.3-4.2,14.8-8.3c15.5-14.1,27.2-12,59.4,10.2c27.2,18.9,42.6,25.8,67.3,30c13.9,2.5,30,3,43.6,1.2
	c9.7-1.1,3.9,4.5,66.7-64.2c17.8-19.5,18.7-20.3,19.7-16.2c2.2,10.2,10.5,20.2,19.8,24.2l5.2,2.2l-47.6,30.9L2404,90.4l-10.8,14.1
	c-22.8,30.6-50.1,55.5-73.1,66.9l-13,6.4v33.1c0,31.6-0.2,33.3-3,34.1C2302.4,245.4,2300.7,245.2,2300.2,244.7z M2237.4,52.4
	c3.1-3.4,1.9-7.7-2.8-9.5c-4.4-1.6-8.7,0.9-8.7,5.2C2225.9,55.2,2232.6,57.7,2237.4,52.4z"/>
<path class="st1" d="M2271.2,453.9c-20.9-2-32.3-5.9-41.1-14.1c-6.1-5.5-8.9-11.4-8.9-18.1c0-12,7.3-20.6,20.8-24.4l6.1-1.6
	l-8.1-4.1c-9.5-4.7-13.1-10.6-13-21.4c0.2-9.8,6.2-18.9,16.2-23.9l7.2-3.4l-6.6-6.9c-8.4-8.7-11.7-18.4-11.7-33.7
	c0.2-24.8,14.7-41.2,42.5-47.8c21.9-5.2,42.3-1.7,62.5,10.3l5.8,3.4l5.2-5.2c18.6-18.4,47.8-12.5,52.2,10.6c1.4,7.2-1.9,17-6.6,20
	c-5.5,3.6-15.2,3.6-19.2,0c-7.3-6.6-5-20,3.7-22.2c7.5-1.9,3.3-5.3-6.4-5.3c-5.8,0-15.9,4.5-19.4,8.4c-1.7,2.2-1.4,4.2,1.4,12.7
	c5.9,18.3,3.7,35.6-5.8,47c-5.8,6.9-18.1,14.7-27.8,17.8c-11.6,3.6-34.5,4.2-45.1,1.4c-13.3-3.6-16.9-3.4-21.4,0.6
	c-5.9,5.5-7,11.2-3.3,16.4c1.7,2.3,4.8,4.7,6.9,5.2c2,0.6,19.2,1.3,38.1,1.3c38.6,0.2,51.7,2.2,63.3,9.2
	c17.8,10.8,19.2,38.7,2.8,52.6c-6.6,5.6-18.4,10.9-29.4,13C2320.2,454.2,2287.3,455.3,2271.2,453.9L2271.2,453.9z M2324.6,439.1
	c18.3-3.9,26.2-10,26.2-19.8c0-8.7-2.8-13.4-10.2-17c-5.8-2.8-9.5-3.1-38.9-3.1c-19.2,0-35.3,0.8-39.5,1.7
	c-8.9,2.3-19.2,11.7-19.2,17.5c0,10.8,6.7,17.2,22.2,20.5C2278.4,441.7,2311.3,441.7,2324.6,439.1L2324.6,439.1z M2313.4,337.7
	c19.2-9.4,22.5-48.4,5.5-63.4c-12.3-10.8-36.1-10.8-48.3,0c-7.5,6.6-10.6,15.3-10.6,30.3c-0.2,20.9,8.3,33.1,25.6,36.7
	C2294.8,343.1,2304.9,341.7,2313.4,337.7z"/>
<path class="st1" d="M1531.7,395c-20.8-5-38-18.7-46.2-37c-5.6-12.7-8.1-29.8-6.2-43.6c5.6-39.2,33.4-62.2,75.5-62.2
	c43.9,0,74.5,29.7,74.5,72.2c0,36.9-21.4,64.2-55.9,71.4C1562.1,398.1,1542.9,397.8,1531.7,395z M1571.5,381.1
	c10.5-3.6,17.8-10.5,23.6-22.3c5.2-10.3,5.2-10.6,5.2-33.1c0-20.2-0.5-23.7-3.7-31.9c-7.2-18.1-21.7-27.5-42.3-27.5
	c-22.2,0-37.8,10.9-43.6,30.6c-4.4,15.3-5.3,26.6-3.3,41.1c3.3,24.5,13.3,38.6,31.2,44.1C1545.4,384.1,1564.3,383.6,1571.5,381.1z
	 M1915.5,393.1l-38-0.3v-12l11.1-0.9c17.8-1.6,17,0.6,17-45.5c0-21.6-0.8-42-1.6-45.3c-3.9-17.2-20.9-24.4-43-18.1
	c-10.8,3-22.7,14.8-26.7,26.6c-2.5,7.3-2.8,13.6-3,42.5c0,29.1,0.3,34.4,2.5,36.4c1.7,1.7,6.6,2.8,14.5,3.4l11.9,0.9v12H1776v-12
	l12.8-1.1c7-0.6,13.7-1.9,14.8-2.8c3-2.3,3-101.7,0-104c-1.1-0.9-6.9-1.9-12.8-2.2l-10.9-0.5l-0.5-6.6l-0.5-6.7h51.7v10.9
	c0,6.1,0.6,10.9,1.4,10.9c0.8,0,3.3-2.5,5.6-5.5c10.2-13.6,31.1-22.2,50-20.6c14.1,1.1,21.2,4.2,29.7,12.8
	c11.4,11.9,12.2,15.6,13.1,65.9c0.5,24.2,1.4,44.4,2,45c2.3,2.3,13.3,3.6,29.5,3.1c25.3-0.8,23.3,4.1,23.3-53.9
	c0-57.6,1.1-54.4-18-55l-12.5-0.5l-0.5-6.6l-0.5-6.7h56.4v58.3c0,31.9,0.6,59,1.4,60.3c2,3.1,13.3,4.5,32,4.1
	c13.1-0.5,17.5-1.2,19.8-3.3c2.8-2.5,3-5.6,3-50.5c0-58.1,1.1-54.8-18.1-54.8h-13.1v-14.1h56.2v23.4l6.6-7.2
	c13.1-14.2,27.5-20.9,45-20.9c19.5,0,35.1,9.4,42.3,25.3c3.6,8,3.7,10.2,4.5,52.3c0.6,37.6,1.1,44.5,3.3,46.6
	c1.7,1.7,6.6,2.8,14.5,3.4l11.9,0.9v12h-81.2v-12l11.4-1.1c7.8-0.6,11.9-1.7,13.3-3.6c1.4-2,1.9-13.6,1.9-45
	c0-41.2-0.2-42.6-3.6-49.2c-4.8-9.4-12.7-13.1-26.1-13.1c-18.7,0.3-34.1,10.8-40.5,27.8c-3,8-3.3,12-3.3,42.8
	c0,18.6,0.6,34.8,1.2,35.9c1.9,2.8,10.6,5,20.2,5h8.3v12.5h-39.4c-21.7,0.2-59.5,0.3-84,0.5C1973.3,393.4,1936.3,393.4,1915.5,393.1
	L1915.5,393.1z M1201.1,386v-6.9l14.2-0.6c22-0.8,20.2,6.7,20.2-82.5v-74.8l-4.1-3.1c-3.4-2.7-6.4-3.3-16.4-3.3h-12.3v-15.6
	l36.9,0.3l37,0.5l5.3,14.1c2.8,7.8,8,21.1,11.2,29.7c3.4,8.6,13.6,35.3,22.8,59.4c9.2,24.1,17.3,44.8,18,46.1
	c1.6,2.8-1.4,10,33.4-77.3l28.7-71.9h71.4l0.5,7.2l0.5,7.2l-13.3,0.8c-11.4,0.6-14.1,1.2-17.3,4.4l-3.9,3.6v72
	c0,39.7,0.5,73.6,0.9,75.6c1.6,5.5,8.4,8.1,21.7,8.1h11.7v14.1h-97.6v-13.7l13.7-0.6c22.3-1.1,20.5,5.9,21.1-79.4
	c0.3-39.5-0.2-71.9-0.8-71.9c-0.6,0-10,22.7-20.8,50.5c-10.6,27.7-25.2,64.7-32.2,82.3l-12.7,32h-18.1l-27.2-71.9
	c-14.8-39.5-29.5-78.1-32.5-85.9l-5.3-14.1l-0.2,75.1c0,89.7-1.9,82,20.2,83.1l14.2,0.6v13.7h-89V386z M1643.2,386.7v-5.9l13.4-0.8
	c10.9-0.6,13.9-1.2,15.6-3.6s2.2-13,2.2-51.6c0-57.8,1.2-53.9-18.4-53.9h-12.8v-14.1h54.7v12.5c0,6.9,0.6,12.5,1.4,12.5
	c0.8,0,3.3-3.1,5.5-6.9c13-22.2,41.9-29.7,58.9-15.5c6.6,5.6,9.2,12.3,9.2,23.7c0,7.7-0.6,10.2-4.1,14.1c-3.4,4.2-5,4.8-11.7,4.8
	c-10,0-15.5-4.8-15.5-13.3c0-8.1,2.3-11.4,9.4-13.4c11.7-3.6,3.1-9.7-11.9-8.7c-10.2,0.8-15.8,3.4-23,11.2
	c-12.2,13-16.7,31.1-16.7,67c0,24.7,0.2,25.9,3.6,30c3.3,3.7,5,4.2,15.6,5l12,0.8v12h-87.5L1643.2,386.7L1643.2,386.7z"/>
<path class="st1" d="M1977.3,198.7c-8-6.7-8-16.7-0.2-24.1c4.4-4.1,13.3-4.4,18.4-0.8c2,1.4,4.5,5,5.8,7.8c1.9,4.5,1.9,6.1,0,10.6
	c-2.3,5.8-9.2,10.3-15.6,10.3C1983.7,202.6,1979.8,200.9,1977.3,198.7L1977.3,198.7z"/>
</svg>
